<svg width="338" height="35" viewBox="0 0 338 35" fill="none" xmlns="http://www.w3.org/2000/svg">
<path d="M289.159 0.414731C288.969 0.485148 288.569 0.580061 288.275 0.625192C287.711 0.719692 287.674 0.719597 283.962 0.626813C282.637 0.594273 282.151 0.626413 281.424 0.795567L280.987 0.894554L272.221 0.880761C267.404 0.872764 262.159 0.863692 260.561 0.859658L257.669 0.856526L257.198 0.742732C256.583 0.591042 255.775 0.497253 255.021 0.495347C254.367 0.493695 253.008 0.644572 252.438 0.780761C252.111 0.859175 251.911 0.862836 248.678 0.854673C245.08 0.845589 245.155 0.84161 242.778 1.07332C242.63 1.08963 242.485 1.04756 242.29 0.930293C241.817 0.64968 241.266 0.502318 240.687 0.500857C240.071 0.4993 239.887 0.528029 238.742 0.837926L237.824 1.0775L236.881 1.07512L235.938 1.07273L235.504 0.879798C234.977 0.64909 234.112 0.505107 233.503 0.549444C232.918 0.589672 232.539 0.659617 231.869 0.870618L231.258 1.06092L230.302 1.0585L229.346 1.05609L228.853 0.883854C227.388 0.371357 225.801 0.350666 224.267 0.822228C223.344 1.10766 223.13 1.10712 222.14 0.812687C220.649 0.37519 219.309 0.250862 218.375 0.46537C217.975 0.560283 217.737 0.643089 217.138 0.904317C216.95 0.987254 216.937 0.987222 215.717 0.750593C213.577 0.34065 212.463 0.296134 211.1 0.576282C210.332 0.728652 209.908 0.748434 209.201 0.650726C208.622 0.570025 208.257 0.569104 207.955 0.647582C207.798 0.688893 207.398 0.704562 206.707 0.706988C205.864 0.70486 205.649 0.691804 205.462 0.624603C205.329 0.578392 204.939 0.50234 204.579 0.451387C203.769 0.336736 203.319 0.356455 202.483 0.550355L201.864 0.694759L201.102 0.567719C200.676 0.495745 200.252 0.440461 200.151 0.440207C200.038 0.439921 199.771 0.497632 199.543 0.567954C199.315 0.634106 198.937 0.70822 198.714 0.73268C198.169 0.78135 196.294 0.772444 194.184 0.70873C192.125 0.649316 190.648 0.695631 189.567 0.855553L188.868 0.962215L187.491 0.841965C186.228 0.730344 185.9 0.721175 183.837 0.715966C181.66 0.710471 180.709 0.737262 178.605 0.869575C177.846 0.917705 177.545 0.921112 177.274 0.882897C176.773 0.814903 176.353 0.86389 175.557 1.07457C175.183 1.17372 174.733 1.26851 174.572 1.28061C174.261 1.30485 174.145 1.28787 173.128 1.0601C172.659 0.95465 172.454 0.933283 171.85 0.931758C171.222 0.93434 171.061 0.950616 170.616 1.07461C170.121 1.20681 169.997 1.21901 167.317 1.36238L164.525 1.51381L164.008 1.34986C163.121 1.06819 162.24 1.06597 160.676 1.34978L159.698 1.52665L156.982 1.52395C154.403 1.51744 154.253 1.52124 153.839 1.60777C153.596 1.66137 153.38 1.72339 153.359 1.74835C153.295 1.82326 151.703 1.85261 148.559 1.84884C146.107 1.84681 145.702 1.83328 144.96 1.75634C143.861 1.64096 142.176 1.64088 139.804 1.74749C138.344 1.81887 137.691 1.82556 136.417 1.8015C134.727 1.76804 134.379 1.79218 133.644 1.99051C133.319 2.08144 133.319 2.08144 132.263 2.00787C130.928 1.91275 130.727 1.91641 130.165 2.01925L129.714 2.1057L128.337 1.98962C126.655 1.84774 125.02 1.84779 123.811 1.9907C123.145 2.07243 122.832 2.07998 120.429 2.07391C118.064 2.06794 117.437 2.07887 114.453 2.20896L111.119 2.35485L110.402 2.27797C109.316 2.16679 108.429 2.20209 106.655 2.43533C104.783 2.68083 104.509 2.69682 104.012 2.57462C103.503 2.45656 102.773 2.45472 101.509 2.5683C100.839 2.62917 100.353 2.65296 99.9476 2.63525C99.2134 2.60421 98.5679 2.65679 98.1357 2.78499L97.7995 2.88423L97.2956 2.79955C96.5977 2.68101 95.8317 2.68742 94.5832 2.82189C93.5823 2.93197 93.3943 2.93566 90.3905 2.94476C87.3623 2.95797 87.1869 2.96169 85.4974 3.09088C83.9325 3.21205 83.5452 3.22775 81.9225 3.22365C79.9853 3.21876 78.0608 3.29314 76.5475 3.42277C76.0517 3.4674 75.4036 3.5033 75.1017 3.50253C74.7369 3.50161 74.2669 3.55047 73.5937 3.66555L72.6141 3.82989L70.2114 3.82382C68.0227 3.8183 67.785 3.82604 67.4825 3.90034C66.8769 4.04478 66.0772 4.07613 64.4326 4.01358C62.927 3.95557 62.8019 3.95942 61.276 4.08903C60.5935 4.14569 58.6981 4.24516 57.7216 4.27189C55.431 4.33701 54.299 4.41339 53.3935 4.56958L52.8791 4.65586L51.9494 4.50337C51.4329 4.41866 50.772 4.29605 50.4853 4.23277C50.1985 4.16948 49.5787 4.06783 49.1033 4.00407C47.3313 3.77439 45.7379 3.87463 43.0287 4.3891C42.1994 4.54965 41.1363 4.74298 40.6822 4.81273C39.8608 4.94411 39.8363 4.94822 39.2357 4.88832C38.3531 4.79434 36.7383 4.76107 35.8923 4.81732C34.9595 4.88169 33.6741 5.09948 32.9308 5.32698L32.3312 5.50897L30.2597 5.52876C27.5354 5.55525 27.2626 5.57958 25.4027 5.97942C25.1843 6.02892 24.5508 6.07736 23.7133 6.10861C21.8643 6.18318 21.4202 6.31552 21.3109 6.81153C21.2602 7.04495 21.2371 7.0574 20.8869 7.06903C20.6869 7.07686 20.3076 7.14263 20.0548 7.21289C19.6571 7.32032 19.3969 7.34469 18.386 7.39218L17.1745 7.44334L16.2329 7.29499C15.0979 7.11697 14.694 7.10761 14.2135 7.24819C14.009 7.30606 13.7774 7.35135 13.6767 7.3511C13.5761 7.35084 13.216 7.37913 12.8565 7.41158C12.1508 7.4807 11.5512 7.66268 11.3085 7.87477C11.1888 7.99124 11.0915 8.01184 10.7519 8.01099C9.74691 8.01679 8.82292 8.21464 8.05542 8.60473C7.15821 9.04871 7.07483 9.07769 5.64654 9.4244C4.87216 9.61429 3.95484 9.85386 3.61997 9.96145C2.88934 10.189 2.29661 10.5712 2.24134 10.8546C2.20837 10.963 2.11785 11.1045 2.0398 11.1669C1.85922 11.2957 1.8921 11.6586 2.08699 11.8551C2.16189 11.9304 2.25805 12.0599 2.29722 12.1476C2.35764 12.2896 2.33515 12.3062 1.98627 12.3262C1.4143 12.3664 1.0741 12.4406 0.833288 12.586C0.637457 12.6981 0.615732 12.7981 0.69179 13.2738L0.781193 13.8328L1.17858 13.959C1.43026 14.0388 1.61047 14.1435 1.69138 14.2563C1.75971 14.3691 1.95383 14.4822 2.28632 14.5957C2.7387 14.7511 2.79569 14.793 2.8867 15.0476C3.03223 15.4859 3.6813 15.6919 5.04719 15.7412C5.64174 15.7635 5.74504 15.7805 5.75705 15.8556C5.77773 15.9849 6.37601 16.3451 6.84297 16.5131C7.05691 16.5929 7.80662 16.7991 8.50066 16.9718C9.29935 17.1699 9.80204 17.3255 9.86303 17.3923C9.90944 17.4467 9.89572 17.5968 9.82835 17.7259C9.66845 17.9841 9.7001 18.4179 9.88098 18.5268C9.96513 18.5812 9.82552 18.6517 9.25174 18.838C8.49862 19.0821 8.18834 19.2648 8.21703 19.4442C8.23438 19.5527 7.94315 19.6187 7.2573 19.6545C6.684 19.6864 6.50532 19.7485 6.53001 19.9029C6.5647 20.1198 7.00717 20.292 7.69712 20.3604C8.25927 20.4161 8.31226 20.4329 8.37068 20.5623C8.42976 20.6959 8.30007 20.7498 6.21481 21.4702C3.96345 22.2527 3.83509 22.315 4.18092 22.5119C4.37438 22.6208 4.58689 22.613 5.43083 22.465C6.2013 22.3293 6.48995 22.3258 6.73439 22.4391C6.8437 22.4936 6.83979 22.5478 6.73001 22.6476C6.28165 23.0677 6.18522 23.2509 6.14616 23.793C6.09672 24.506 5.95664 24.7309 5.3255 25.1088L4.83197 25.4036L4.87496 25.9084C4.92472 26.5341 4.84077 26.6381 4.26213 26.6367C3.92249 26.6358 3.8371 26.6523 3.84711 26.7149C3.85445 26.7608 4.11662 27.2994 4.42921 27.9174C4.74113 28.5313 5.05392 29.3078 5.13245 29.6416C5.23834 30.1465 5.3445 30.3386 5.73103 30.79C6.34562 31.488 6.54661 31.8013 6.62123 32.1894C6.64859 32.3604 6.75609 32.5609 6.84357 32.6362C7.05895 32.8035 7.63187 33.0052 8.12322 33.0898C8.38148 33.1322 8.64974 33.2371 8.90018 33.3879C9.52762 33.7732 10.5985 34.0219 11.9816 34.1005C12.4126 34.1224 12.4524 34.135 12.4737 34.2685L12.4971 34.4146L20.0446 34.4336L27.592 34.4527L27.566 34.29C27.5246 34.0313 27.6729 34.015 29.3937 34.0819C31.0125 34.1402 31.3614 34.1202 31.9113 33.9423C32.1986 33.8513 32.2859 33.8473 34.9745 33.8332C38.6059 33.8174 40.9488 33.6857 43.3881 33.3707C44.5206 33.2193 45.1595 33.2042 46.0547 33.2982C47.0519 33.4008 48.386 33.4084 48.9374 33.318C49.1571 33.2769 49.5324 33.186 49.7594 33.1116L50.1776 32.975L53.1933 32.9617C55.9084 32.9561 56.2837 32.9445 56.9378 32.8669C57.3449 32.8179 57.8109 32.744 57.981 32.7069C58.2484 32.6492 58.8495 32.634 61.9274 32.6168C68.8485 32.5717 75.0742 32.3455 80.6926 31.9385C82.6064 31.7974 82.7064 31.7935 83.5704 31.8499C85.2343 31.9542 88.8259 31.9257 92.4869 31.7806C95.0364 31.6828 96.4392 31.6488 99.0021 31.6344C102.055 31.6171 102.305 31.6094 102.919 31.5192C103.275 31.4659 103.712 31.3627 103.888 31.2881L104.207 31.1555L106.728 31.1994C111.168 31.2815 114.606 31.1609 117.62 30.8223L119.288 30.6347L120.581 30.7005C122.71 30.806 124.172 30.8264 126.215 30.7856C128.796 30.7296 132.366 30.5676 134.429 30.4102C135.112 30.3577 135.188 30.3621 135.731 30.4552C136.494 30.5864 137.511 30.6599 138.06 30.6279C138.57 30.5958 139.389 30.3685 139.647 30.1773L139.817 30.0568L141.218 30.0937C142.43 30.1218 142.722 30.1434 143.343 30.2492C144.313 30.4185 145.065 30.4037 146.49 30.1904C147.067 30.1043 147.928 29.9855 148.397 29.9283C149.249 29.8304 149.286 29.8305 151.03 29.8807C155.086 30.0078 157.792 29.9437 160.15 29.6702L161.373 29.5315L161.927 29.6956C162.6 29.8933 163.267 29.9742 163.98 29.951C164.267 29.9392 165.155 29.833 165.966 29.7141C167.661 29.464 167.436 29.4718 171.659 29.5366C174.432 29.577 179.796 29.5488 184.159 29.4681C190.966 29.3393 194.196 29.3308 214.196 29.373C233.919 29.4186 234.372 29.4197 237.103 29.5142C241.074 29.6535 243.719 29.6852 245.545 29.6189C247.508 29.5488 248.339 29.5593 250.382 29.677C253.466 29.8558 254.849 29.7717 256.025 29.3451C256.56 29.1505 256.585 29.1464 257.069 29.1893C258.816 29.3397 263.16 29.3798 266.93 29.2851C268.132 29.2506 270.036 29.2095 271.164 29.1874L273.207 29.1466L274.235 29.2785C275.351 29.419 276.833 29.4894 278.972 29.499C279.765 29.501 280.361 29.5317 280.936 29.5915C282.241 29.7325 284.457 29.7506 286.854 29.644C287.916 29.6008 289.556 29.5508 290.497 29.5406C292.028 29.5236 292.28 29.5284 293.049 29.6138C294.636 29.7888 295.368 29.7281 295.803 29.383L296.014 29.2084L298.631 29.215C301.184 29.2215 301.234 29.2216 301.558 29.1223L301.895 29.0272L301.628 28.7722C301.303 28.4711 301.338 28.2168 301.729 27.9091C302.266 27.4934 303.142 27.3872 305.206 27.48C307.587 27.5861 308.417 27.5882 309.458 27.4949C310.437 27.4056 312.472 27.073 314.373 26.6941C316.188 26.3317 317.41 26.1888 319.175 26.139C320.001 26.1161 320.901 26.0808 321.174 26.0565C321.893 25.9916 322.772 25.8311 323.3 25.6698C323.551 25.5912 323.868 25.5253 323.993 25.5256C324.509 25.5269 328.649 25.2329 329.986 25.0987C333.117 24.7854 335.489 24.2826 336.93 23.6273L337.41 23.4033L337.287 22.6357L337.165 21.868L336.753 21.6543C336.203 21.3568 334.405 20.8893 332.187 20.4625C331.291 20.2892 331.251 20.2724 331.227 20.1222C331.21 20.0179 331.286 19.9431 331.454 19.8893C331.813 19.7776 332.03 19.5613 331.92 19.4234C331.872 19.3607 331.64 19.1641 331.41 18.9883C330.836 18.5406 330.836 18.4656 331.444 18.4129C332.461 18.3237 332.839 18.0911 332.705 17.6487C332.576 17.2355 332.6 16.9103 332.76 16.894C332.835 16.8858 333.218 16.8493 333.603 16.8169C334.471 16.7398 334.938 16.595 334.91 16.4198C334.884 16.2571 334.139 15.7631 333.688 15.616C333.197 15.4563 332.651 15.4257 331.951 15.5282C331.411 15.6102 331.386 15.6102 331.084 15.5343C330.901 15.488 330.694 15.3707 330.588 15.262C330.42 15.0781 330.418 15.0656 330.765 14.9497C330.954 14.8793 331.15 14.763 331.176 14.6921C331.309 14.4214 331.569 14.2427 331.855 14.2184C332.016 14.2063 332.411 14.2365 332.784 14.2875C333.131 14.3384 333.59 14.3729 333.777 14.3651C334.39 14.3458 334.3 14.1745 333.353 13.6008C331.667 12.5706 331.064 12.0227 330.956 11.4303C330.869 10.963 331.013 10.6839 331.588 10.2683L332.073 9.9192L331.447 9.70075C331.088 9.58307 330.721 9.48623 330.608 9.48594C330.507 9.48569 330.049 9.5304 329.593 9.58764C329.149 9.64491 328.754 9.68978 328.741 9.68975C328.729 9.68972 328.408 9.48873 328.041 9.24174L327.367 8.79797L327.397 8.43938C327.412 8.05991 327.289 7.92197 326.835 7.83324C326.628 7.79518 326.518 7.81576 326.092 7.98567L325.595 8.18043L325.25 8.06696C324.772 7.90727 324.64 7.79017 324.474 7.38104C324.304 6.94688 324.142 6.79633 323.733 6.67435C323.416 6.5818 323.399 6.55257 323.325 6.09363C323.253 5.7181 323.18 5.58029 323 5.47557L322.764 5.33735L322.109 5.48584C321.758 5.56836 321.453 5.62597 321.439 5.6176C321.412 5.60919 321.309 5.51301 321.215 5.396C320.618 4.73138 319.573 4.41179 318.001 4.40782C317.636 4.4069 317.415 4.4397 317.056 4.55557C316.661 4.67969 316.501 4.70014 316.097 4.6866L315.617 4.67288L315.567 4.36414L315.518 4.0554L316.753 3.91672C317.902 3.78616 318.101 3.77416 319.435 3.78169C321.738 3.79585 322.885 3.65695 323.382 3.29954C323.673 3.07924 323.815 2.62919 323.699 2.29526C323.593 2.02808 323.565 2.00715 322.761 1.69651C322.305 1.5202 321.841 1.36889 321.713 1.35605C321.598 1.34742 321.292 1.32163 321.051 1.30434C320.81 1.29122 320.435 1.22771 320.225 1.17296C319.608 1.00876 318.357 0.817928 317.699 0.791244C317.18 0.76908 316.956 0.785197 316.405 0.875555C316.038 0.937185 315.578 1.04863 315.377 1.12736C314.809 1.35531 314.39 1.32922 313.511 1.02256C312.113 0.535251 310.782 0.469333 308.301 0.755001C306.634 0.946804 305.812 0.994775 305.635 0.910917C305.567 0.87738 305.494 0.735402 305.47 0.589373L305.429 0.330699L297.466 0.310592L289.504 0.290486L289.159 0.414731Z" fill="#97FFD0" fill-opacity="0.61"/>
</svg>
